<svg width="28" height="28" viewBox="0 0 28 28" fill="none" xmlns="http://www.w3.org/2000/svg">
<path d="M17.15 7.35009C16.7053 7.80374 16.7053 8.52977 17.15 8.98343L19.0166 10.8501C19.4703 11.2948 20.1963 11.2948 20.65 10.8501L24.2736 7.22759C24.647 6.85193 25.2805 6.97093 25.4205 7.48193C26.1401 10.0991 25.2818 12.8963 23.2183 14.6595C21.1547 16.4228 18.2578 16.8341 15.785 15.7151L6.55664 24.9434C5.59014 25.9096 4.0234 25.9093 3.05722 24.9428C2.09105 23.9763 2.09131 22.4096 3.05781 21.4434L12.2861 12.2151C11.1671 9.74224 11.5785 6.84537 13.3417 4.78181C15.1049 2.71825 17.9022 1.86001 20.5193 2.57959C21.0303 2.71959 21.1493 3.35193 20.7748 3.72759L17.15 7.35009" stroke="#EA580C" stroke-width="2.33333" stroke-linecap="round" stroke-linejoin="round"/>
</svg>
