<svg width="28" height="28" viewBox="0 0 28 28" fill="none" xmlns="http://www.w3.org/2000/svg">
<path d="M12.8532 3.28303C12.9563 2.73085 13.4383 2.33057 14 2.33057C14.5617 2.33057 15.0437 2.73085 15.1469 3.28303L16.373 9.76736C16.5513 10.7108 17.2892 11.4488 18.2327 11.627L24.717 12.8532C25.2692 12.9563 25.6695 13.4383 25.6695 14C25.6695 14.5617 25.2692 15.0437 24.717 15.1469L18.2327 16.373C17.2892 16.5513 16.5513 17.2892 16.373 18.2327L15.1469 24.717C15.0437 25.2692 14.5617 25.6695 14 25.6695C13.4383 25.6695 12.9563 25.2692 12.8532 24.717L11.627 18.2327C11.4488 17.2892 10.7108 16.5513 9.76736 16.373L3.28303 15.1469C2.73085 15.0437 2.33057 14.5617 2.33057 14C2.33057 13.4383 2.73085 12.9563 3.28303 12.8532L9.76736 11.627C10.7108 11.4488 11.4488 10.7108 11.627 9.76736L12.8532 3.28303M23.3334 2.33336V7.00003M25.6667 4.66669H21" stroke="#65A30D" stroke-width="2.33333" stroke-linecap="round" stroke-linejoin="round"/>
<path d="M2.33331 23.3333C2.33331 24.6211 3.37884 25.6667 4.66665 25.6667C5.95445 25.6667 6.99998 24.6211 6.99998 23.3333C6.99998 22.0455 5.95445 21 4.66665 21C3.37884 21 2.33331 22.0455 2.33331 23.3333H2.33331" stroke="#65A30D" stroke-width="2.33333" stroke-linecap="round" stroke-linejoin="round"/>
</svg>
