<svg width="28" height="28" viewBox="0 0 28 28" fill="none" xmlns="http://www.w3.org/2000/svg">
<path d="M8.16667 19.0167C10.7333 19.0167 12.8333 16.8817 12.8333 14.2917C12.8333 12.9383 12.1683 11.655 10.8383 10.57C9.50833 9.48502 8.505 7.87502 8.16667 6.18335C7.82833 7.87502 6.83667 9.49668 5.495 10.57C4.15333 11.6433 3.5 12.95 3.5 14.2917C3.5 16.8817 5.6 19.0167 8.16667 19.0167" stroke="currentColor" stroke-width="2.33333" stroke-linecap="round" stroke-linejoin="round"/>
<path d="M14.6533 7.7001C15.455 6.41775 16.0238 5.00377 16.3333 3.52344C16.9166 6.4401 18.6666 9.2401 21 11.1068C23.3333 12.9734 24.5 15.1901 24.5 17.5234C24.5136 20.8215 22.5366 23.8022 19.4928 25.0723C16.449 26.3425 12.9397 25.6513 10.605 23.3218" stroke="currentColor" stroke-width="2.33333" stroke-linecap="round" stroke-linejoin="round"/>
</svg>
