<svg width="24" height="24" viewBox="0 0 24 24" fill="none" xmlns="http://www.w3.org/2000/svg">
<path d="M3.99951 13.9999C3.61326 14.0013 3.26079 13.78 3.09406 13.4316C2.92734 13.0832 2.97617 12.6699 3.21951 12.3699L13.1195 2.16994C13.2725 1.9934 13.5273 1.94627 13.7332 2.05645C13.9392 2.16662 14.0415 2.40472 13.9795 2.62994L12.0595 8.64994C11.9446 8.95752 11.988 9.30191 12.1756 9.57137C12.3632 9.84083 12.6712 10.001 12.9995 9.99994H19.9995C20.3858 9.99862 20.7382 10.2199 20.905 10.5683C21.0717 10.9167 21.0229 11.33 20.7795 11.6299L10.8795 21.8299C10.7266 22.0065 10.4718 22.0536 10.2658 21.9434C10.0598 21.8333 9.95756 21.5952 10.0195 21.3699L11.9395 15.3499C12.0544 15.0424 12.011 14.698 11.8234 14.4285C11.6358 14.1591 11.3279 13.9989 10.9995 13.9999H3.99951" stroke="#0069D6" stroke-width="2" stroke-linecap="round" stroke-linejoin="round"/>
</svg>
