<svg width="21" height="21" viewBox="0 0 21 21" fill="none" xmlns="http://www.w3.org/2000/svg">
<path d="M17.6084 9.22334H10.9004V2.51522C10.9004 2.05246 10.5247 1.67676 10.0618 1.67676C9.59904 1.67676 9.22334 2.05246 9.22334 2.51522V9.22334H2.51522C2.05246 9.22334 1.67676 9.59904 1.67676 10.0618C1.67676 10.5247 2.05246 10.9004 2.51522 10.9004H9.22334V17.6084C9.22334 18.0713 9.59904 18.447 10.0618 18.447C10.5247 18.447 10.9004 18.0713 10.9004 17.6084V10.9004H17.6084C18.0713 10.9004 18.447 10.5247 18.447 10.0618C18.447 9.59904 18.0713 9.22334 17.6084 9.22334Z" fill="#2563EB"/>
</svg>
