<svg width="13" height="13" viewBox="0 0 13 13" fill="none" xmlns="http://www.w3.org/2000/svg">
    <path d="M7.39329 0.904664L8.50353 3.12547C8.65314 3.4326 9.05471 3.72398 9.3933 3.78698L11.4012 4.11774C12.6846 4.33037 12.9839 5.25964 12.0626 6.18891L10.4957 7.75607C10.2358 8.01596 10.0862 8.52784 10.1728 8.89798L10.6216 10.8353C10.976 12.3631 10.1571 12.9616 8.81062 12.1583L6.92872 11.04C6.59014 10.8353 6.02321 10.8353 5.68463 11.04L3.80273 12.1583C2.45627 12.9537 1.63737 12.3631 1.9917 10.8353L2.44052 8.89798C2.51139 8.51997 2.36178 8.00808 2.10194 7.7482L0.535004 6.18104C-0.386258 5.25964 -0.0870445 4.33037 1.19642 4.10986L3.2043 3.77911C3.54289 3.72398 3.94446 3.42472 4.09407 3.11759L5.20431 0.896789C5.81061 -0.300239 6.78699 -0.300239 7.39329 0.904664Z"
          fill="white"/>
</svg>
