<svg width="32" height="32" viewBox="0 0 32 32" fill="none" xmlns="http://www.w3.org/2000/svg">
<path d="M12 2.6665H20C20.7359 2.6665 21.3334 3.26395 21.3334 3.99984V6.6665C21.3334 7.40239 20.7359 7.99984 20 7.99984H12C11.2641 7.99984 10.6667 7.40239 10.6667 6.6665V3.99984C10.6667 3.26395 11.2641 2.6665 12 2.6665V2.6665" stroke="#2563EB" stroke-width="2.66667" stroke-linecap="round" stroke-linejoin="round"/>
<path d="M21.3333 5.33301H24C25.4718 5.33301 26.6666 6.5279 26.6666 7.99967V26.6663C26.6666 28.1381 25.4718 29.333 24 29.333H7.99998C6.52821 29.333 5.33331 28.1381 5.33331 26.6663V7.99967C5.33331 6.5279 6.52821 5.33301 7.99998 5.33301H10.6666M16 14.6663H21.3333M16 21.333H21.3333M10.6666 14.6663H10.68M10.6666 21.333H10.68" stroke="#2563EB" stroke-width="2.66667" stroke-linecap="round" stroke-linejoin="round"/>
</svg>
