<svg width="32" height="32" viewBox="0 0 32 32" fill="none" xmlns="http://www.w3.org/2000/svg">
<path d="M21.3334 28.0002V25.3336C21.3334 22.39 18.9436 20.0002 16 20.0002H8.00002C5.05647 20.0002 2.66669 22.39 2.66669 25.3336V28.0002M21.3334 4.1709C23.6856 4.78072 25.3283 6.90352 25.3283 9.33357C25.3283 11.7636 23.6856 13.8864 21.3334 14.4962M29.3334 28.0002V25.3336C29.3315 22.9031 27.6867 20.7812 25.3334 20.1736" stroke="#2563EB" stroke-width="2.66667" stroke-linecap="round" stroke-linejoin="round"/>
<path d="M6.66669 9.33333C6.66669 12.2769 9.05647 14.6667 12 14.6667C14.9436 14.6667 17.3334 12.2769 17.3334 9.33333C17.3334 6.38979 14.9436 4 12 4C9.05647 4 6.66669 6.38979 6.66669 9.33333H6.66669" stroke="#2563EB" stroke-width="2.66667" stroke-linecap="round" stroke-linejoin="round"/>
</svg>
