<svg width="25" height="25" viewBox="0 0 25 25" fill="none" xmlns="http://www.w3.org/2000/svg">
<path d="M13.0125 0.803711C14.2914 0.78418 15.5609 0.794336 16.8296 0.78418C16.8718 2.3709 17.5156 3.79902 18.5398 4.85684L18.5382 4.85527C19.6406 5.84824 21.075 6.49199 22.6562 6.60137L22.6781 6.60293V10.5373C21.1843 10.4998 19.7796 10.1553 18.5132 9.56309L18.5773 9.58965C17.9648 9.29512 17.4468 8.99277 16.9546 8.65527L16.9953 8.68184C16.9859 11.5326 17.0046 14.3834 16.9757 17.224C16.8953 18.6717 16.414 19.992 15.6421 21.0943L15.6578 21.0701C14.3671 22.9186 12.2765 24.1318 9.89918 24.2037H9.88824C9.79215 24.2084 9.67887 24.2107 9.5648 24.2107C8.21324 24.2107 6.94996 23.8342 5.8734 23.1803L5.90465 23.1982C3.94527 22.0193 2.59371 20.0021 2.34371 17.6561L2.34058 17.624C2.32105 17.1357 2.31168 16.6475 2.33121 16.1693C2.71402 12.4357 5.84215 9.54746 9.64449 9.54746C10.0718 9.54746 10.4906 9.58418 10.8976 9.65371L10.8539 9.64746C10.8734 11.092 10.8148 12.5373 10.8148 13.9818C10.4843 13.8623 10.1031 13.7928 9.70543 13.7928C8.24605 13.7928 7.00465 14.7256 6.54527 16.0279L6.53824 16.0514C6.43433 16.385 6.37418 16.7686 6.37418 17.1654C6.37418 17.3264 6.38433 17.4857 6.40308 17.642L6.40152 17.6232C6.6609 19.2217 8.03121 20.4279 9.68355 20.4279C9.73121 20.4279 9.77808 20.4271 9.82496 20.4248H9.81793C10.9609 20.3904 11.9531 19.7756 12.514 18.867L12.5218 18.8529C12.7304 18.5623 12.8734 18.2107 12.9211 17.8287L12.9218 17.8178C13.0195 16.0701 12.9804 14.3326 12.9898 12.585C12.9992 8.65059 12.9804 4.72559 13.0093 0.801367L13.0125 0.803711Z" fill="black"/>
</svg>
