<svg width="25" height="25" viewBox="0 0 25 25" fill="none" xmlns="http://www.w3.org/2000/svg">
<path fill-rule="evenodd" clip-rule="evenodd" d="M9.91875 15.7653L9.91797 8.69121L16.6727 12.2404L9.91875 15.7653ZM24.75 7.46539C24.75 7.46539 24.5055 5.73051 23.7562 4.96654C22.8055 3.96338 21.7398 3.95865 21.2516 3.90042C17.7531 3.6455 12.5055 3.64551 12.5055 3.64551H12.4945C12.4945 3.64551 7.24688 3.6455 3.74844 3.90042C3.25938 3.95865 2.19453 3.96338 1.24297 4.96654C0.493753 5.73051 0.249998 7.46539 0.249998 7.46539C0.249998 7.46539 0 9.50318 0 11.5402V13.4505C0 15.4883 0.249998 17.5253 0.249998 17.5253C0.249998 17.5253 0.493753 19.2602 1.24297 20.0242C2.19453 21.0273 3.44375 20.9959 4 21.1005C6 21.294 12.5 21.3538 12.5 21.3538C12.5 21.3538 17.7531 21.346 21.2516 21.0911C21.7398 21.032 22.8055 21.0273 23.7562 20.0242C24.5055 19.2602 24.75 17.5253 24.75 17.5253C24.75 17.5253 25 15.4883 25 13.4505V11.5402C25 9.50318 24.75 7.46539 24.75 7.46539Z" fill="#CE1312"/>
</svg>
