<svg width="14" height="14" viewBox="0 0 14 14" fill="none" xmlns="http://www.w3.org/2000/svg">
    <path d="M11.6666 5.83341C11.6666 8.746 8.4355 11.7793 7.3505 12.7162C7.14286 12.8723 6.85698 12.8723 6.64933 12.7162C5.56433 11.7793 2.33325 8.746 2.33325 5.83341C2.33325 3.25781 4.42432 1.16675 6.99992 1.16675C9.57552 1.16675 11.6666 3.25781 11.6666 5.83341"
          stroke="#0077CC" stroke-width="1.16667" stroke-linecap="round" stroke-linejoin="round"/>
    <path d="M5.25 5.83337C5.25 6.79923 6.03415 7.58337 7 7.58337C7.96585 7.58337 8.75 6.79923 8.75 5.83337C8.75 4.86752 7.96585 4.08337 7 4.08337C6.03415 4.08337 5.25 4.86752 5.25 5.83337V5.83337"
          stroke="#0077CC" stroke-width="1.16667" stroke-linecap="round" stroke-linejoin="round"/>
</svg>
