<svg width="28" height="28" viewBox="0 0 28 28" fill="none" xmlns="http://www.w3.org/2000/svg">
<path d="M11.6666 23.3335L10.2083 20.4168L6.99992 21.0002M11.6666 4.66683L10.2083 7.5835L6.99992 7.00016M12.3491 17.5002H11.6666M2.33325 14.0002H9.91658L11.6666 10.5002M23.3333 16.9635C25.1624 18.0196 26.0542 20.1726 25.5076 22.2128C24.9609 24.253 23.1121 25.6716 20.9999 25.6716C18.8878 25.6716 17.0389 24.253 16.4923 22.2128C15.9456 20.1726 16.8374 18.0196 18.6666 16.9635V4.66683C18.6666 3.37903 19.7121 2.3335 20.9999 2.3335C22.2877 2.3335 23.3333 3.37903 23.3333 4.66683L11.6666 23.3335" stroke="#0077CC" stroke-width="2.33333" stroke-linecap="round" stroke-linejoin="round"/>
<path d="M4.66675 11.6667L6.41675 14L4.66675 16.3333M8.16675 24.5L11.6667 17.5L9.91675 14M8.16675 3.5L11.6667 10.5H14.0001" stroke="#0077CC" stroke-width="2.33333" stroke-linecap="round" stroke-linejoin="round"/>
</svg>
