<svg width="28" height="28" viewBox="0 0 28 28" fill="none" xmlns="http://www.w3.org/2000/svg">
<path d="M17.5001 14H11.6667M17.5001 9.33333H11.6667M22.1667 19.8333V5.83333C22.1667 4.54553 21.1212 3.5 19.8334 3.5H4.66675" stroke="#0077CC" stroke-width="2.33333" stroke-linecap="round" stroke-linejoin="round"/>
<path d="M9.33325 24.5H23.3333C24.6211 24.5 25.6666 23.4545 25.6666 22.1667V21C25.6666 20.3561 25.1438 19.8333 24.4999 19.8333H12.8333C12.1894 19.8333 11.6666 20.3561 11.6666 21V22.1667C11.6666 23.4545 10.6211 24.5 9.33325 24.5C8.04545 24.5 6.99992 23.4545 6.99992 22.1667V5.83333C6.99992 4.54553 5.95439 3.5 4.66659 3.5C3.37878 3.5 2.33325 4.54553 2.33325 5.83333V8.16667C2.33325 8.81057 2.85602 9.33333 3.49992 9.33333H6.99992" stroke="#0077CC" stroke-width="2.33333" stroke-linecap="round" stroke-linejoin="round"/>
</svg>
