<svg width="13" height="13" viewBox="0 0 13 13" fill="none" xmlns="http://www.w3.org/2000/svg">
<path d="M2.16657 7.58333C1.95735 7.58405 1.76642 7.46421 1.67611 7.27548C1.5858 7.08676 1.61226 6.86289 1.74407 6.70042L7.10657 1.17542C7.18941 1.07979 7.32743 1.05426 7.439 1.11394C7.55057 1.17362 7.60596 1.30259 7.5724 1.42458L6.5324 4.68542C6.47015 4.85202 6.49365 5.03857 6.59528 5.18452C6.69691 5.33048 6.86371 5.41724 7.04157 5.41667H10.8332C11.0425 5.41595 11.2334 5.53579 11.3237 5.72452C11.414 5.91324 11.3875 6.1371 11.2557 6.29958L5.89323 11.8246C5.81038 11.9202 5.67236 11.9457 5.5608 11.8861C5.44923 11.8264 5.39384 11.6974 5.4274 11.5754L6.4674 8.31458C6.52965 8.14798 6.50615 7.96143 6.40452 7.81548C6.30289 7.66952 6.13608 7.58275 5.95823 7.58333H2.16657" stroke="#6B7280" stroke-width="1.08333" stroke-linecap="round" stroke-linejoin="round"/>
</svg>
