<svg width="13" height="13" viewBox="0 0 13 13" fill="none" xmlns="http://www.w3.org/2000/svg">
<path d="M7.96243 3.41246C7.75598 3.62309 7.75598 3.96017 7.96243 4.1708L8.82909 5.03746C9.03972 5.24392 9.3768 5.24392 9.58743 5.03746L11.2698 3.35559C11.4432 3.18117 11.7373 3.23642 11.8023 3.47367C12.1364 4.68878 11.7379 5.98749 10.7798 6.80614C9.82176 7.62478 8.47679 7.81577 7.32868 7.29621L3.04409 11.5808C2.59566 12.0291 1.86765 12.029 1.41936 11.5805C0.971083 11.1321 0.971205 10.4041 1.41964 9.9558L5.70422 5.67121C5.18466 4.5231 5.37565 3.17813 6.1943 2.22005C7.01294 1.26197 8.31166 0.863498 9.52676 1.19759C9.76401 1.26259 9.81926 1.55617 9.64539 1.73059L7.96243 3.41246" stroke="#6B7280" stroke-width="1.08333" stroke-linecap="round" stroke-linejoin="round"/>
</svg>
